# xmcd CD database file
#
# Track frame offsets:
#	150
#	15812
#	34285
#	50127
#	64210
#	74810
#	88927
#	102605
#	120310
#	134335
#	146567
#	164590
#	176117
#	196162
#	211230
#	225325
#	241092
#	259380
#	270482
#	288787
#	300985
#
# Disc length: 4254 seconds
#
# Revision: 3
# Processed by: cddbd v1.5.2PL0 Copyright (c) Steve Scherf et al.
# Submitted via: CDex 2.16
#
DISCID=33109c15
DTITLE=Os Farrapos - 21 Grandes Sucessos De Os Farrapos
DYEAR=1994
DGENRE=Gaucho Nativ
TTITLE0=Marcas do Pampa
TTITLE1=Macaco Velho
TTITLE2=Nao Ta  Morto Quem Peleia
TTITLE3=Fandango dos Bugios
TTITLE4=Mate Amargo
TTITLE5=Sangue Criolo
TTITLE6=Dancando e Gritando
TTITLE7=Queixo Seco
TTITLE8=Baile na Costa
TTITLE9=Xote Encasticado
TTITLE10=Pensando na Gabriela
TTITLE11=Tempos de Infancia
TTITLE12=Pampa na Garupa
TTITLE13=Gaita da Bossoroca
TTITLE14=Tche
TTITLE15=Passo do Bugio
TTITLE16=Ala Pucha
TTITLE17=Reliquia
TTITLE18=Querenciando Saudade
TTITLE19=So  Vou No Bastantao
TTITLE20=Carreta
EXTD=YEAR: 1994
EXTT0=(Iedo Silva - Calico Ribeiro)
EXTT1=(Iedo Silva)
EXTT2=(Iedo Silva - Nei Fernandes)
EXTT3=(Ari Lemos - Iedo Silva)
EXTT4=(Fl vio Mattes - Bonif cio Barros)
EXTT5=(Lauro Rodrigues)
EXTT6=(Iedo silva - Nei Fernandes)
EXTT7=(Iedo Silva - Tio Nanato)
EXTT8=(Iedo Silva)
EXTT9=(Iedo Silva - Ari Lemos - Ademar Garcia)
EXTT10=(Calico Ribeiro - Iedo Silva)
EXTT11=Fl vio Corr a e Iedo Silva)
EXTT12=(Iedo Silva)
EXTT13=(Iedo Silva)
EXTT14=(Iedo Silva - Paulista - Adilson)
EXTT15=(Marlene Pastro)
EXTT16=(Iedo Silva)
EXTT17=(Ari Lemos - Tio Nanato - Loide Suzana)
EXTT18=(Iedo Silva - Contran Goulart)
EXTT19=(Iedo Silva - Velho Milongueiro)
EXTT20=(Iesdo Silva - Paulo Nazar )
PLAYORDER=
